<svg xmlns="http://www.w3.org/2000/svg" width="128" height="128" viewBox="0 0 128 128">
  <rect width="128" height="128" rx="24" fill="#1f6feb"/>
  <path d="M34 38h60a8 8 0 0 1 8 8v36a8 8 0 0 1-8 8H34a8 8 0 0 1-8-8V46a8 8 0 0 1 8-8Z" fill="#fff"/>
  <path d="M58 52v24l22-12-22-12Z" fill="#1f6feb"/>
  <path d="M31 101c10-10 20-15 33-15s23 5 33 15" fill="none" stroke="#fff" stroke-width="8" stroke-linecap="round"/>
  <circle cx="45" cy="59" r="5" fill="#0f172a"/>
  <circle cx="83" cy="59" r="5" fill="#0f172a"/>
</svg>
